<svg width="42" height="42" viewBox="0 0 42 42" fill="none" xmlns="http://www.w3.org/2000/svg">
<path d="M32.7777 9.46755L30.5377 11.2175L21.0002 18.305L11.4627 11.1475L9.22266 9.39755C8.69496 8.961 8.05077 8.68887 7.36991 8.61486C6.68906 8.54085 6.00145 8.66822 5.39227 8.98119C4.7831 9.29416 4.27913 9.77898 3.9428 10.3756C3.60648 10.9722 3.45257 11.6543 3.50016 12.3375V32.62C3.50016 33.2513 3.75091 33.8566 4.19725 34.303C4.64358 34.7493 5.24894 35 5.88016 35H11.4627V21.49L21.0002 28.6475L30.5377 21.49V35H36.1202C36.7514 35 37.3567 34.7493 37.8031 34.303C38.2494 33.8566 38.5002 33.2513 38.5002 32.62V12.3375C38.533 11.6602 38.3684 10.988 38.0263 10.4024C37.6843 9.81692 37.1795 9.34338 36.5733 9.03937C35.9672 8.73537 35.2858 8.614 34.6119 8.69001C33.9381 8.76602 33.3009 9.03615 32.7777 9.46755Z" fill="#FFF7E3"/>
</svg>
