<svg width="49" height="49" viewBox="0 0 49 49" fill="none" xmlns="http://www.w3.org/2000/svg">
<path d="M34.7082 36.75C35.7911 36.75 36.8297 37.1802 37.5955 37.946C38.3613 38.7118 38.7915 39.7504 38.7915 40.8333C38.7915 41.9163 38.3613 42.9549 37.5955 43.7207C36.8297 44.4865 35.7911 44.9167 34.7082 44.9167C33.6252 44.9167 32.5866 44.4865 31.8208 43.7207C31.055 42.9549 30.6248 41.9163 30.6248 40.8333C30.6248 38.5671 32.4419 36.75 34.7082 36.75ZM2.0415 4.08334H8.71775L10.6369 8.16668H40.8332C41.3747 8.16668 41.894 8.38178 42.2768 8.76467C42.6597 9.14755 42.8748 9.66686 42.8748 10.2083C42.8748 10.5554 42.7727 10.9025 42.6298 11.2292L35.3207 24.4388C34.6265 25.6842 33.279 26.5417 31.7478 26.5417H16.5373L14.6998 29.8696L14.6386 30.1146C14.6386 30.25 14.6924 30.3798 14.7881 30.4755C14.8838 30.5712 15.0136 30.625 15.149 30.625H38.7915V34.7083H14.2915C13.2085 34.7083 12.1699 34.2781 11.4042 33.5124C10.6384 32.7466 10.2082 31.708 10.2082 30.625C10.2082 29.9104 10.3919 29.2367 10.6982 28.665L13.4748 23.6629L6.12484 8.16668H2.0415V4.08334ZM14.2915 36.75C15.3745 36.75 16.4131 37.1802 17.1789 37.946C17.9446 38.7118 18.3748 39.7504 18.3748 40.8333C18.3748 41.9163 17.9446 42.9549 17.1789 43.7207C16.4131 44.4865 15.3745 44.9167 14.2915 44.9167C13.2085 44.9167 12.1699 44.4865 11.4042 43.7207C10.6384 42.9549 10.2082 41.9163 10.2082 40.8333C10.2082 38.5671 12.0253 36.75 14.2915 36.75ZM32.6665 22.4583L38.3423 12.25H12.5357L17.354 22.4583H32.6665Z" fill="#153D4B"/>
</svg>
