<svg xmlns="http://www.w3.org/2000/svg">
  <symbol id="cart" viewBox="0 0 41 41">
    <path d="M32.6667 32.6667C33.7496 32.6667 34.7882 33.0969 35.554 33.8626C36.3198 34.6284 36.75 35.667 36.75 36.75C36.75 37.833 36.3198 38.8716 35.554 39.6373C34.7882 40.4031 33.7496 40.8333 32.6667 40.8333C31.5837 40.8333 30.5451 40.4031 29.7793 39.6373C29.0135 38.8716 28.5833 37.833 28.5833 36.75C28.5833 34.4837 30.4004 32.6667 32.6667 32.6667ZM0 0H6.67625L8.59542 4.08333H38.7917C39.3331 4.08333 39.8525 4.29844 40.2353 4.68132C40.6182 5.06421 40.8333 5.58352 40.8333 6.125C40.8333 6.47208 40.7312 6.81917 40.5883 7.14583L33.2792 20.3554C32.585 21.6008 31.2375 22.4583 29.7062 22.4583H14.4958L12.6583 25.7862L12.5971 26.0312C12.5971 26.1666 12.6509 26.2964 12.7466 26.3922C12.8423 26.4879 12.9721 26.5417 13.1075 26.5417H36.75V30.625H12.25C11.167 30.625 10.1284 30.1948 9.36265 29.429C8.59687 28.6632 8.16667 27.6246 8.16667 26.5417C8.16667 25.8271 8.35042 25.1533 8.65667 24.5817L11.4333 19.5796L4.08333 4.08333H0V0ZM12.25 32.6667C13.333 32.6667 14.3716 33.0969 15.1374 33.8626C15.9031 34.6284 16.3333 35.667 16.3333 36.75C16.3333 37.833 15.9031 38.8716 15.1374 39.6373C14.3716 40.4031 13.333 40.8333 12.25 40.8333C11.167 40.8333 10.1284 40.4031 9.36265 39.6373C8.59687 38.8716 8.16667 37.833 8.16667 36.75C8.16667 34.4837 9.98375 32.6667 12.25 32.6667ZM30.625 18.375L36.3008 8.16667H10.4942L15.3125 18.375H30.625Z" fill="#153D4B"/>
  </symbol>

  <symbol id="user" viewBox="0 0 32 32">
    <g clip-path="url(#clip0_11_449)">
      <path d="M22 14C22 17.32 19.32 20 16 20C12.68 20 10 17.32 10 14C10 10.68 12.68 8 16 8C19.32 8 22 10.68 22 14Z" fill="#193948"/>
      <path fill-rule="evenodd" clip-rule="evenodd" d="M32 16C32 24.84 24.84 32 16 32C7.16 32 0 24.84 0 16C0 7.16 7.16 0 16 0C24.84 0 32 7.16 32 16ZM8 27.5C8.32 26.968 11.42 22 15.98 22C20.52 22 23.64 26.98 23.96 27.5C25.8197 26.214 27.3393 24.4955 28.3879 22.4922C29.4365 20.489 29.9829 18.2611 29.98 16C29.98 8.26 23.72 2 15.98 2C8.24 2 1.98 8.26 1.98 16C1.98 20.76 4.36 24.98 8 27.5Z" fill="#193948"/>
    </g>
    <defs>
      <clipPath id="clip0_11_449">
        <rect width="32" height="32" fill="white"/>
      </clipPath>
    </defs>



  </symbol>

  <symbol id="facebook" viewBox="0 0 22 37">
    <path d="M20.6762 0.273227C18.9109 0.0859575 17.1367 -0.00517688 15.3615 0.000226866C9.47625 0.000226866 5.81875 3.74873 5.81875 9.78273V13.8795H0.875C0.642936 13.8795 0.420375 13.9717 0.256281 14.1358C0.0921866 14.2999 0 14.5224 0 14.7545V21.492C0 21.724 0.0921866 21.9466 0.256281 22.1107C0.420375 22.2748 0.642936 22.367 0.875 22.367H5.81875V35.877C5.81875 36.109 5.91094 36.3316 6.07503 36.4957C6.23912 36.6598 6.46169 36.752 6.69375 36.752H13.6552C13.8873 36.752 14.1099 36.6598 14.274 36.4957C14.4381 36.3316 14.5302 36.109 14.5302 35.877V22.367H19.4583C19.6707 22.3671 19.8759 22.2899 20.0356 22.1498C20.1953 22.0098 20.2986 21.8164 20.3263 21.6057L21.196 14.8682C21.2122 14.7447 21.2018 14.6192 21.1656 14.5C21.1294 14.3809 21.0682 14.2708 20.986 14.1772C20.9038 14.0836 20.8026 14.0086 20.6891 13.9573C20.5757 13.9059 20.4525 13.8794 20.328 13.8795H14.5302V10.4512C14.5302 8.75373 14.8715 8.04498 16.9942 8.04498H20.5625C20.7946 8.04498 21.0171 7.95279 21.1812 7.7887C21.3453 7.6246 21.4375 7.40204 21.4375 7.16998V1.14123C21.4376 0.928791 21.3604 0.723573 21.2203 0.563859C21.0803 0.404145 20.8869 0.300843 20.6762 0.273227ZM19.6875 6.29323L16.9925 6.29498C13.2177 6.29498 12.7802 8.66798 12.7802 10.4512V14.7562C12.7802 14.988 12.8722 15.2103 13.0359 15.3743C13.1996 15.5384 13.4217 15.6308 13.6535 15.6312H19.334L18.6882 20.6187H13.6552C13.4232 20.6187 13.2006 20.7109 13.0365 20.875C12.8724 21.0391 12.7802 21.2617 12.7802 21.4937V35.0002H7.56875V21.4937C7.56875 21.2617 7.47656 21.0391 7.31247 20.875C7.14837 20.7109 6.92581 20.6187 6.69375 20.6187H1.75175V15.6312H6.69375C6.92581 15.6312 7.14837 15.539 7.31247 15.3749C7.47656 15.2109 7.56875 14.9883 7.56875 14.7562V9.78273C7.56875 4.75323 10.4825 1.75023 15.3615 1.75023C17.1272 1.75023 18.7215 1.84648 19.6875 1.93048V6.29323Z" fill="#FFF7E3"/>
  </symbol>

  <symbol id="instagram" viewBox="0 0 33 33">
    <path d="M16.0781 8.53125C14.5855 8.53125 13.1264 8.97387 11.8853 9.80313C10.6442 10.6324 9.67693 11.811 9.10572 13.1901C8.53452 14.5691 8.38506 16.0865 8.67626 17.5504C8.96746 19.0144 9.68623 20.3591 10.7417 21.4146C11.7971 22.47 13.1419 23.1888 14.6058 23.48C16.0698 23.7712 17.5872 23.6217 18.9662 23.0505C20.3452 22.4793 21.5239 21.512 22.3531 20.2709C23.1824 19.0299 23.625 17.5708 23.625 16.0781C23.625 14.0766 22.8299 12.157 21.4146 10.7417C19.9993 9.32637 18.0797 8.53125 16.0781 8.53125ZM16.0781 21.6562C14.9749 21.6562 13.8964 21.3291 12.9791 20.7162C12.0618 20.1032 11.3468 19.232 10.9246 18.2128C10.5024 17.1935 10.3919 16.0719 10.6072 14.9899C10.8224 13.9078 11.3537 12.9139 12.1338 12.1338C12.9139 11.3537 13.9078 10.8224 14.9899 10.6072C16.0719 10.3919 17.1935 10.5024 18.2128 10.9246C19.232 11.3468 20.1032 12.0618 20.7162 12.9791C21.3291 13.8964 21.6562 14.9749 21.6562 16.0781C21.6519 17.5562 21.0628 18.9725 20.0177 20.0177C18.9725 21.0628 17.5562 21.6519 16.0781 21.6562ZM23.2969 0H8.85938C6.50972 0 4.25631 0.933396 2.59485 2.59485C0.933396 4.25631 0 6.50972 0 8.85938V23.2969C0 25.6465 0.933396 27.8999 2.59485 29.5614C4.25631 31.2229 6.50972 32.1562 8.85938 32.1562H23.2969C25.6465 32.1562 27.8999 31.2229 29.5614 29.5614C31.2229 27.8999 32.1562 25.6465 32.1562 23.2969V8.85938C32.1562 6.50972 31.2229 4.25631 29.5614 2.59485C27.8999 0.933396 25.6465 0 23.2969 0ZM30.1875 23.2969C30.1875 25.1244 29.4615 26.877 28.1693 28.1693C26.877 29.4615 25.1244 30.1875 23.2969 30.1875H8.85938C7.03187 30.1875 5.27921 29.4615 3.98697 28.1693C2.69472 26.877 1.96875 25.1244 1.96875 23.2969V8.85938C1.96875 7.03187 2.69472 5.27921 3.98697 3.98697C5.27921 2.69472 7.03187 1.96875 8.85938 1.96875H23.2969C25.1244 1.96875 26.877 2.69472 28.1693 3.98697C29.4615 5.27921 30.1875 7.03187 30.1875 8.85938V23.2969ZM26.25 7.54688C26.25 7.87136 26.1538 8.18856 25.9735 8.45836C25.7932 8.72816 25.537 8.93844 25.2372 9.06261C24.9374 9.18679 24.6076 9.21928 24.2893 9.15598C23.9711 9.09267 23.6787 8.93642 23.4493 8.70697C23.2198 8.47753 23.0636 8.18519 23.0003 7.86695C22.937 7.5487 22.9695 7.21882 23.0936 6.91903C23.2178 6.61925 23.4281 6.36302 23.6979 6.18274C23.9677 6.00247 24.2849 5.90625 24.6094 5.90625C25.0445 5.90625 25.4618 6.0791 25.7695 6.38678C26.0772 6.69445 26.25 7.11175 26.25 7.54688Z" fill="#FFF7E3"/>
  </symbol>

  <symbol id="twitter" viewBox="0 0 36 27">
    <path d="M29.286 0.873185L27.046 2.62318L17.5085 9.71069L7.97096 2.55318L5.73096 0.803185C5.20326 0.366639 4.55907 0.094505 3.87822 0.0204975C3.19736 -0.05351 2.50975 0.0738616 1.90057 0.386832C1.2914 0.699802 0.787432 1.18462 0.451105 1.78121C0.114779 2.37781 -0.0391249 3.05997 0.00846018 3.74319V24.0257C0.00846018 24.6569 0.259209 25.2623 0.705546 25.7086C1.15188 26.1549 1.75724 26.4057 2.38846 26.4057H7.97096V12.8957L17.5085 20.0532L27.046 12.8957V26.4057H32.6285C33.2597 26.4057 33.865 26.1549 34.3114 25.7086C34.7577 25.2623 35.0085 24.6569 35.0085 24.0257V3.74319C35.0413 3.06587 34.8767 2.39359 34.5346 1.80807C34.1926 1.22256 33.6878 0.749016 33.0816 0.445013C32.4755 0.14101 31.7941 0.0196387 31.1202 0.0956511C30.4464 0.171663 29.8092 0.441786 29.286 0.873185Z" fill="#FFF7E3"/>
  </symbol>

  <symbol id="phone" viewBox="0 0 35 40">
    <path d="M32.7614 29.0279L32.5339 28.7444C30.7331 26.4676 29.2281 25.2829 27.9366 25.1271C26.8201 24.9749 25.7404 25.7466 24.5924 26.5411L23.3656 27.3076C23.2186 27.3811 23.0734 27.4406 22.9369 27.4809C22.2194 27.6839 20.4081 27.8029 19.3826 26.8649C18.1891 25.7729 16.3376 23.7744 14.8974 22.0279C13.5219 20.2201 12.0099 17.9661 11.2206 16.5469C10.5539 15.3446 11.1121 13.6629 11.4849 13.0399C11.5584 12.9174 11.6546 12.7966 11.7614 12.6776L12.8429 11.6784C12.8586 11.6626 12.8656 11.6434 12.8796 11.6294C12.8901 11.6189 12.9076 11.6224 12.9199 11.6136C13.8964 10.7894 14.9061 9.94065 15.0444 8.8504C15.2071 7.5694 14.4109 5.8369 12.6066 3.5619L12.3861 3.2784C11.2696 1.8469 9.58088 -0.317853 7.15538 0.0391465C6.20163 0.180897 5.34938 0.506397 4.47088 1.05765C4.46213 1.0629 4.45688 1.0734 4.44988 1.07865C4.44288 1.0839 4.43413 1.0839 4.42713 1.08915L3.20388 1.99565C3.19163 2.00265 3.18463 2.0184 3.17238 2.0289C3.16363 2.03765 3.14963 2.0394 3.13913 2.04815C2.99738 2.16715 2.85563 2.28965 2.71563 2.41565C1.47488 3.52165 -1.21137 6.7329 0.620881 12.6724C1.80388 16.5084 4.24338 20.9849 7.69263 25.6434L7.65938 25.6714L9.56163 28.0409L9.57738 28.0286C13.3171 32.4526 17.1234 35.8721 20.6111 37.9424C22.9386 39.3249 24.9721 39.7816 26.6451 39.7816C28.8466 39.7816 30.4234 38.9906 31.2144 38.4761L31.7114 38.1436C31.7674 38.1051 31.8076 38.0509 31.8479 38.0019L32.9311 37.1864C32.9434 37.1759 32.9504 37.1619 32.9626 37.1514C32.9679 37.1461 32.9766 37.1479 32.9836 37.1426C33.7536 36.4391 34.2874 35.7024 34.6584 34.8291C35.6191 32.5909 33.8989 30.4471 32.7614 29.0279ZM33.3721 34.2796C33.0834 34.9586 32.6616 35.5361 32.0526 36.0961L30.4409 37.3089C28.9814 38.2574 25.8611 39.4299 21.3286 36.7384C17.8409 34.6681 14.0014 31.1681 10.2231 26.6164L9.20113 25.3249C5.64338 20.6069 3.14088 16.0884 1.95963 12.2594C0.424881 7.28065 2.35863 4.61015 3.65363 3.4569C3.78488 3.3379 3.91613 3.22765 4.04563 3.1174L4.05088 3.11215L5.22513 2.2424C5.93913 1.7909 6.60063 1.5389 7.36188 1.4234C8.98763 1.1784 10.3106 2.8934 11.2819 4.1394L11.5094 4.42815C13.5254 6.9709 13.7196 8.18015 13.6566 8.67365C13.5866 9.2214 12.7536 9.92315 12.0186 10.5409L11.9154 10.6284C11.9119 10.6319 11.9101 10.6371 11.9066 10.6406C11.9014 10.6441 11.8961 10.6459 11.8909 10.6494L10.7726 11.6836C10.7656 11.6906 10.7621 11.6994 10.7551 11.7081C10.7481 11.7169 10.7341 11.7204 10.7271 11.7291C10.5539 11.9234 10.4051 12.1176 10.2844 12.3189C9.65613 13.3706 9.06288 15.5441 9.99913 17.2259C10.8164 18.6959 12.3721 21.0181 13.8019 22.8941C15.2964 24.7071 17.2021 26.7651 18.4376 27.8939C19.3634 28.7391 20.6514 29.0226 21.7661 29.0226C22.3629 29.0226 22.9106 28.9404 23.3254 28.8231C23.5441 28.7601 23.7699 28.6691 24.0026 28.5554C24.0166 28.5484 24.0236 28.5361 24.0376 28.5274C24.0446 28.5239 24.0551 28.5256 24.0621 28.5204L25.3606 27.7084C25.4026 27.6804 25.4306 27.6436 25.4656 27.6086L25.4814 27.6261C26.2811 27.0714 27.1929 26.4204 27.7634 26.5149C28.2691 26.5761 29.4171 27.0626 31.4366 29.6124L31.6694 29.9046C32.6529 31.1314 34.0004 32.8114 33.3721 34.2796Z" fill="#FFF7E3"/>
  </symbol>
  <symbol id="icon-pencil" viewBox="0 0 32 32">
    <path d="M27 0c2.761 0 5 2.239 5 5 0 1.126-0.372 2.164-1 3l-2 2-7-7 2-2c0.836-0.628 1.874-1 3-1zM2 23l-2 9 9-2 18.5-18.5-7-7-18.5 18.5zM22.362 11.362l-14 14-1.724-1.724 14-14 1.724 1.724z"></path>
  </symbol>
  <symbol id="icon-bin2" viewBox="0 0 32 32">
    <path d="M6 32h20l2-22h-24zM20 4v-4h-8v4h-10v6l2-2h24l2 2v-6h-10zM18 4h-4v-2h4v2z"></path>
  </symbol>
</svg>