<svg width="42" height="42" viewBox="0 0 42 42" fill="none" xmlns="http://www.w3.org/2000/svg">
<path d="M21.0781 13.5312C19.5855 13.5312 18.1264 13.9739 16.8853 14.8031C15.6442 15.6324 14.6769 16.811 14.1057 18.1901C13.5345 19.5691 13.3851 21.0865 13.6763 22.5504C13.9675 24.0144 14.6862 25.3591 15.7417 26.4146C16.7971 27.47 18.1419 28.1888 19.6058 28.48C21.0698 28.7712 22.5872 28.6217 23.9662 28.0505C25.3452 27.4793 26.5239 26.512 27.3531 25.2709C28.1824 24.0299 28.625 22.5708 28.625 21.0781C28.625 19.0766 27.8299 17.157 26.4146 15.7417C24.9993 14.3264 23.0797 13.5312 21.0781 13.5312ZM21.0781 26.6562C19.9749 26.6562 18.8964 26.3291 17.9791 25.7162C17.0618 25.1032 16.3468 24.232 15.9246 23.2128C15.5024 22.1935 15.3919 21.0719 15.6072 19.9899C15.8224 18.9078 16.3537 17.9139 17.1338 17.1338C17.9139 16.3537 18.9078 15.8224 19.9899 15.6072C21.0719 15.3919 22.1935 15.5024 23.2128 15.9246C24.232 16.3468 25.1032 17.0618 25.7162 17.9791C26.3291 18.8964 26.6562 19.9749 26.6562 21.0781C26.6519 22.5562 26.0628 23.9725 25.0177 25.0177C23.9725 26.0628 22.5562 26.6519 21.0781 26.6562ZM28.2969 5H13.8594C11.5097 5 9.25631 5.9334 7.59485 7.59485C5.9334 9.25631 5 11.5097 5 13.8594V28.2969C5 30.6465 5.9334 32.8999 7.59485 34.5614C9.25631 36.2229 11.5097 37.1562 13.8594 37.1562H28.2969C30.6465 37.1562 32.8999 36.2229 34.5614 34.5614C36.2229 32.8999 37.1562 30.6465 37.1562 28.2969V13.8594C37.1562 11.5097 36.2229 9.25631 34.5614 7.59485C32.8999 5.9334 30.6465 5 28.2969 5ZM35.1875 28.2969C35.1875 30.1244 34.4615 31.877 33.1693 33.1693C31.877 34.4615 30.1244 35.1875 28.2969 35.1875H13.8594C12.0319 35.1875 10.2792 34.4615 8.98697 33.1693C7.69472 31.877 6.96875 30.1244 6.96875 28.2969V13.8594C6.96875 12.0319 7.69472 10.2792 8.98697 8.98697C10.2792 7.69472 12.0319 6.96875 13.8594 6.96875H28.2969C30.1244 6.96875 31.877 7.69472 33.1693 8.98697C34.4615 10.2792 35.1875 12.0319 35.1875 13.8594V28.2969ZM31.25 12.5469C31.25 12.8714 31.1538 13.1886 30.9735 13.4584C30.7932 13.7282 30.537 13.9384 30.2372 14.0626C29.9374 14.1868 29.6076 14.2193 29.2893 14.156C28.9711 14.0927 28.6787 13.9364 28.4493 13.707C28.2198 13.4775 28.0636 13.1852 28.0003 12.8669C27.937 12.5487 27.9695 12.2188 28.0936 11.919C28.2178 11.6192 28.4281 11.363 28.6979 11.1827C28.9677 11.0025 29.2849 10.9062 29.6094 10.9062C30.0445 10.9062 30.4618 11.0791 30.7695 11.3868C31.0772 11.6945 31.25 12.1118 31.25 12.5469Z" fill="#FFF7E3"/>
</svg>
